name Walk1.mot
datacolumns 19
datarows 22
range 2.38700000 2.40800000
endheader

                time	   L_ground_force_vx	   L_ground_force_vy	   L_ground_force_vz	   L_ground_force_px	   L_ground_force_py	   L_ground_force_pz	   R_ground_force_vx	   R_ground_force_vy	   R_ground_force_vz	   R_ground_force_px	   R_ground_force_py	   R_ground_force_pz	   L_ground_torque_x	   L_ground_torque_y	   L_ground_torque_z	   R_ground_torque_x	   R_ground_torque_y	   R_ground_torque_z	
          2.38700000	         15.28549401	         77.48509277	          1.00955369	          0.54588284	          0.00000000	          0.07825280	          0.00000000	          0.00000000	          0.00000000	          0.00000000	          0.00000000	          0.00000000	          0.00000000	         -0.09208416	          0.00000000	          0.00000000	          0.00000000	          0.00000000	
          2.38800000	         14.28075408	         73.46251199	          0.69399080	          0.54637235	          0.00000000	          0.07941030	          0.00000000	          0.00000000	          0.00000000	          0.00000000	          0.00000000	          0.00000000	          0.00000000	         -0.09920328	          0.00000000	          0.00000000	          0.00000000	          0.00000000	
          2.38900000	         13.32751512	         69.47070449	          0.40601010	          0.54723640	          0.00000000	          0.08019465	          0.00000000	          0.00000000	          0.00000000	          0.00000000	          0.00000000	          0.00000000	          0.00000000	         -0.09661063	          0.00000000	          0.00000000	          0.00000000	          0.00000000	
          2.39000000	         12.41348340	         65.51132137	          0.15477624	          0.54865792	          0.00000000	          0.08047290	          0.00000000	          0.00000000	          0.00000000	          0.00000000	          0.00000000	          0.00000000	          0.00000000	         -0.08776252	          0.00000000	          0.00000000	          0.00000000	          0.00000000	
          2.39100000	         11.52828318	         61.63921893	         -0.07294283	          0.55084894	          0.00000000	          0.08032922	          0.00000000	          0.00000000	          0.00000000	          0.00000000	          0.00000000	          0.00000000	          0.00000000	         -0.07974440	          0.00000000	          0.00000000	          0.00000000	          0.00000000	
          2.39200000	         10.66240773	         57.91952130	         -0.28786746	          0.55371190	          0.00000000	          0.07993914	          0.00000000	          0.00000000	          0.00000000	          0.00000000	          0.00000000	          0.00000000	          0.00000000	         -0.07503730	          0.00000000	          0.00000000	          0.00000000	          0.00000000	
          2.39300000	          9.80740748	         54.39627153	         -0.50143331	          0.55672135	          0.00000000	          0.07959290	          0.00000000	          0.00000000	          0.00000000	          0.00000000	          0.00000000	          0.00000000	          0.00000000	         -0.07526350	          0.00000000	          0.00000000	          0.00000000	          0.00000000	
          2.39400000	          8.96811647	         51.08225096	         -0.73578211	          0.55936557	          0.00000000	          0.07951920	          0.00000000	          0.00000000	          0.00000000	          0.00000000	          0.00000000	          0.00000000	          0.00000000	         -0.08277438	          0.00000000	          0.00000000	          0.00000000	          0.00000000	
          2.39500000	          8.15990608	         47.96658278	         -1.00516806	          0.56134283	          0.00000000	          0.07962336	          0.00000000	          0.00000000	          0.00000000	          0.00000000	          0.00000000	          0.00000000	          0.00000000	         -0.09436654	          0.00000000	          0.00000000	          0.00000000	          0.00000000	
          2.39600000	          7.38669942	         45.03632382	         -1.30125009	          0.56234292	          0.00000000	          0.07961709	          0.00000000	          0.00000000	          0.00000000	          0.00000000	          0.00000000	          0.00000000	          0.00000000	         -0.10176207	          0.00000000	          0.00000000	          0.00000000	          0.00000000	
          2.39700000	          6.63690906	         42.26238465	         -1.60939013	          0.56234541	          0.00000000	          0.07929048	          0.00000000	          0.00000000	          0.00000000	          0.00000000	          0.00000000	          0.00000000	          0.00000000	         -0.10096497	          0.00000000	          0.00000000	          0.00000000	          0.00000000	
          2.39800000	          5.90153505	         39.57160349	         -1.91942724	          0.56215352	          0.00000000	          0.07854704	          0.00000000	          0.00000000	          0.00000000	          0.00000000	          0.00000000	          0.00000000	          0.00000000	         -0.09469419	          0.00000000	          0.00000000	          0.00000000	          0.00000000	
          2.39900000	          5.17830691	         36.87008374	         -2.21290617	          0.56301068	          0.00000000	          0.07747733	          0.00000000	          0.00000000	          0.00000000	          0.00000000	          0.00000000	          0.00000000	          0.00000000	         -0.08646039	          0.00000000	          0.00000000	          0.00000000	          0.00000000	
          2.40000000	          4.46080641	         34.05630816	         -2.46121476	          0.56550810	          0.00000000	          0.07647208	          0.00000000	          0.00000000	          0.00000000	          0.00000000	          0.00000000	          0.00000000	          0.00000000	         -0.07905130	          0.00000000	          0.00000000	          0.00000000	          0.00000000	
          2.40100000	          3.74226777	         30.97407303	         -2.63850648	          0.56911143	          0.00000000	          0.07585827	          0.00000000	          0.00000000	          0.00000000	          0.00000000	          0.00000000	          0.00000000	          0.00000000	         -0.07525500	          0.00000000	          0.00000000	          0.00000000	          0.00000000	
          2.40200000	          3.02479705	         27.40660064	         -2.71537973	          0.57276992	          0.00000000	          0.07546655	          0.00000000	          0.00000000	          0.00000000	          0.00000000	          0.00000000	          0.00000000	          0.00000000	         -0.07474760	          0.00000000	          0.00000000	          0.00000000	          0.00000000	
          2.40300000	          2.31473793	         23.18434302	         -2.64665634	          0.57580385	          0.00000000	          0.07484835	          0.00000000	          0.00000000	          0.00000000	          0.00000000	          0.00000000	          0.00000000	          0.00000000	         -0.07273696	          0.00000000	          0.00000000	          0.00000000	          0.00000000	
          2.40400000	          1.62981570	         18.39685741	         -2.40431334	          0.57836795	          0.00000000	          0.07363304	          0.00000000	          0.00000000	          0.00000000	          0.00000000	          0.00000000	          0.00000000	          0.00000000	         -0.06485620	          0.00000000	          0.00000000	          0.00000000	          0.00000000	
          2.40500000	          1.01792397	         13.48677324	         -2.01497706	          0.58118692	          0.00000000	          0.07159847	          0.00000000	          0.00000000	          0.00000000	          0.00000000	          0.00000000	          0.00000000	          0.00000000	         -0.05226479	          0.00000000	          0.00000000	          0.00000000	          0.00000000	
          2.40600000	          0.53639426	          8.95724123	         -1.53053784	          0.58479063	          0.00000000	          0.06873124	          0.00000000	          0.00000000	          0.00000000	          0.00000000	          0.00000000	          0.00000000	          0.00000000	         -0.03885301	          0.00000000	          0.00000000	          0.00000000	          0.00000000	
          2.40700000	          0.00000000	          0.00000000	          0.00000000	          0.00000000	          0.00000000	          0.00000000	          0.00000000	          0.00000000	          0.00000000	          0.00000000	          0.00000000	          0.00000000	          0.00000000	          0.00000000	          0.00000000	          0.00000000	          0.00000000	          0.00000000	
          2.40800000	          0.00000000	          0.00000000	          0.00000000	          0.00000000	          0.00000000	          0.00000000	          0.00000000	          0.00000000	          0.00000000	          0.00000000	          0.00000000	          0.00000000	          0.00000000	          0.00000000	          0.00000000	          0.00000000	          0.00000000	          0.00000000	
